<svg width="369" height="132" viewBox="0 0 369 132" fill="none" xmlns="http://www.w3.org/2000/svg">
<g filter="url(#filter0_b_370_251)">
<mask id="path-1-inside-1_370_251" fill="white">
<path fill-rule="evenodd" clip-rule="evenodd" d="M365.028 44.6865C369.725 49.3837 369.724 57.0312 364.81 61.5015C262.734 154.369 106.69 155.004 3.87646 63.4059C-1.11822 58.9561 -1.15798 51.2443 3.57211 46.5142L44.5038 5.58248C49.1274 0.958857 56.584 0.92733 61.5659 5.16245C132.26 65.2593 236.878 64.7026 306.943 3.49253C311.917 -0.853157 319.467 -0.874431 324.138 3.7962L365.028 44.6865Z"/>
</mask>
<path fill-rule="evenodd" clip-rule="evenodd" d="M365.028 44.6865C369.725 49.3837 369.724 57.0312 364.81 61.5015C262.734 154.369 106.69 155.004 3.87646 63.4059C-1.11822 58.9561 -1.15798 51.2443 3.57211 46.5142L44.5038 5.58248C49.1274 0.958857 56.584 0.92733 61.5659 5.16245C132.26 65.2593 236.878 64.7026 306.943 3.49253C311.917 -0.853157 319.467 -0.874431 324.138 3.7962L365.028 44.6865Z" fill="url(#paint0_linear_370_251)" fill-opacity="0.7"/>
<path d="M306.943 3.49253L308.259 4.99872L306.943 3.49253ZM324.138 3.7962L322.724 5.21041L324.138 3.7962ZM44.5038 5.58248L45.918 6.99669L44.5038 5.58248ZM61.5659 5.16245L60.2705 6.68625L61.5659 5.16245ZM364.81 61.5015L366.156 62.9809L364.81 61.5015ZM365.028 44.6865L366.442 43.2723L365.028 44.6865ZM3.87646 63.4059L2.54605 64.8992L3.87646 63.4059ZM3.57211 46.5142L2.15789 45.1L3.57211 46.5142ZM2.54605 64.8992C106.123 157.177 263.322 156.538 366.156 62.9809L363.464 60.0221C262.146 152.2 107.257 152.83 5.20687 61.9126L2.54605 64.8992ZM43.0896 4.16826L2.15789 45.1L4.98632 47.9284L45.918 6.99669L43.0896 4.16826ZM305.627 1.98634C236.309 62.5439 132.802 63.0948 62.8613 3.63864L60.2705 6.68625C131.718 67.4237 237.446 66.8614 308.259 4.99872L305.627 1.98634ZM366.442 43.2723L325.552 2.38198L322.724 5.21041L363.614 46.1007L366.442 43.2723ZM308.259 4.99872C312.503 1.29126 318.854 1.34067 322.724 5.21041L325.552 2.38198C320.081 -3.08953 311.332 -2.99757 305.627 1.98634L308.259 4.99872ZM45.918 6.99669C49.7491 3.16561 56.0209 3.07367 60.2705 6.68625L62.8613 3.63864C57.1471 -1.21901 48.5057 -1.2479 43.0896 4.16826L45.918 6.99669ZM366.156 62.9809C371.956 57.7045 371.907 48.7365 366.442 43.2723L363.614 46.1007C367.544 50.0309 367.492 56.3578 363.464 60.0221L366.156 62.9809ZM5.20687 61.9126C1.11346 58.2657 1.02828 51.8864 4.98632 47.9284L2.15789 45.1C-3.34425 50.6021 -3.34989 59.6465 2.54605 64.8992L5.20687 61.9126Z" fill="url(#paint1_linear_370_251)" fill-opacity="0.7" mask="url(#path-1-inside-1_370_251)"/>
</g>
<defs>
<filter id="filter0_b_370_251" x="-35.9236" y="-35.7375" width="440.447" height="203.369" filterUnits="userSpaceOnUse" color-interpolation-filters="sRGB">
<feFlood flood-opacity="0" result="BackgroundImageFix"/>
<feGaussianBlur in="BackgroundImageFix" stdDeviation="18"/>
<feComposite in2="SourceAlpha" operator="in" result="effect1_backgroundBlur_370_251"/>
<feBlend mode="normal" in="SourceGraphic" in2="effect1_backgroundBlur_370_251" result="shape"/>
</filter>
<linearGradient id="paint0_linear_370_251" x1="235.683" y1="190.647" x2="257.066" y2="-142.135" gradientUnits="userSpaceOnUse">
<stop stop-color="#919191"/>
<stop offset="0.0001" stop-color="#919191"/>
<stop offset="1" stop-color="#909090" stop-opacity="0"/>
</linearGradient>
<linearGradient id="paint1_linear_370_251" x1="235.683" y1="190.647" x2="257.066" y2="-142.135" gradientUnits="userSpaceOnUse">
<stop stop-color="#919191"/>
<stop offset="0.0001" stop-color="#919191"/>
<stop offset="1" stop-color="#909090" stop-opacity="0"/>
</linearGradient>
</defs>
</svg>
